<svg id="Layer_1" data-name="Layer 1" xmlns="http://www.w3.org/2000/svg" viewBox="0 0 250 250"><defs><style>.cls-1{fill:#e52b00;}</style></defs><path class="cls-1" d="M157.11,104.92,64,50.19a2.14,2.14,0,0,0-2.16,0l-31,18.24a2.14,2.14,0,0,0-1.05,1.84V179.73a2.13,2.13,0,0,0,1.05,1.84l93.08,54.73a2.16,2.16,0,0,0,2.16,0l31-18.25a2.12,2.12,0,0,0,1-1.83V106.76A2.13,2.13,0,0,0,157.11,104.92Zm-34.24,21.3v68l-57.79-34v-68Z"/><path class="cls-1" d="M219.16,68.43,126.08,13.7a2.14,2.14,0,0,0-2.16,0L92.89,32a2.13,2.13,0,0,0,0,3.67l92,54.11V198a2.15,2.15,0,0,0,2.13,2.14,2.07,2.07,0,0,0,1.08-.3l31-18.24a2.13,2.13,0,0,0,1.05-1.84V70.27A2.14,2.14,0,0,0,219.16,68.43Z"/></svg>