<svg id="Layer_1" data-name="Layer 1" xmlns="http://www.w3.org/2000/svg" viewBox="0 0 1000 232.32"><defs><style>.cls-1{fill:#e52b00;}.cls-2{fill:#3f3f3f;}</style></defs><path class="cls-1" d="M132,101,61.69,59.67a1.64,1.64,0,0,0-1.63,0L36.63,73.45a1.62,1.62,0,0,0-.79,1.39v82.64a1.62,1.62,0,0,0,.79,1.39l70.28,41.32a1.57,1.57,0,0,0,.81.22,1.6,1.6,0,0,0,.82-.22L132,186.42a1.6,1.6,0,0,0,.8-1.39V102.38A1.58,1.58,0,0,0,132,101Zm-25.85,16.08v51.36L62.48,142.78V91.43Z"/><path class="cls-1" d="M178.81,73.45,108.54,32.13a1.59,1.59,0,0,0-1.63,0L83.48,45.9a1.62,1.62,0,0,0,0,2.78L153,89.53v81.72a1.62,1.62,0,0,0,.81,1.4,1.65,1.65,0,0,0,.8.21,1.6,1.6,0,0,0,.82-.22l23.42-13.77a1.6,1.6,0,0,0,.8-1.39V74.84A1.6,1.6,0,0,0,178.81,73.45Z"/><path class="cls-2" d="M233.51,74h19l16.72,39.36L285.44,74h19.5v83.88H285.07v-46l-10.69,25.53H264.07l-11.7-26.66v47.16H233.51Z"/><path class="cls-2" d="M343.55,183.07H324.68l6.92-25.9L312.11,98.81h20.75l9.3,36.85L351,98.81h19.75Z"/><path class="cls-1" d="M377.88,74h48.54v16.1H398.25v18.48h25.53V125H398.25v32.95H377.88Z"/><path class="cls-1" d="M435.47,98.81h17l1.38,5.54a14.36,14.36,0,0,1,6.67-4.91,21.7,21.7,0,0,1,6.67-1.25,22.56,22.56,0,0,1,2.38.12,12.78,12.78,0,0,1,2,.38v16.1a22.92,22.92,0,0,0-4.78-.51q-5.66,0-9,2.08c-2.23,1.38-3.34,3.88-3.34,7.48v34.08h-19Z"/><path class="cls-1" d="M494.46,134.4q.24,5.67,4.27,7.86t11.45,2.21a50.92,50.92,0,0,0,5.34-.32,36.29,36.29,0,0,0,5.35-.94v14.21a25.83,25.83,0,0,1-3.4.63c-1.34.16-2.7.31-4.09.44s-2.74.23-4.08.31-2.48.13-3.4.13q-14.08,0-21.63-6.79t-7.55-20.75v-8.68a29.45,29.45,0,0,1,1.95-11.19,21.82,21.82,0,0,1,5.35-7.93,22.09,22.09,0,0,1,8.05-4.71,31.15,31.15,0,0,1,10.06-1.57,27.23,27.23,0,0,1,8.67,1.38,19.71,19.71,0,0,1,7.36,4.4,21.09,21.09,0,0,1,5.1,7.86,32.66,32.66,0,0,1,1.88,11.76V134.4Zm14.21-11.82q0-6.4-1.83-8.55a6.34,6.34,0,0,0-5.09-2.14,7.13,7.13,0,0,0-5.34,2.14q-2.09,2.14-2.08,8.55Z"/><path class="cls-1" d="M535.2,74h19v17.1h-19Zm0,24.77h19v59.11h-19Z"/><path class="cls-1" d="M598,151.63a22,22,0,0,1-5.6,4.28,17,17,0,0,1-8,1.63,21.83,21.83,0,0,1-7.79-1.38,14.65,14.65,0,0,1-6.29-4.65,23.81,23.81,0,0,1-4.15-8.62,50,50,0,0,1-1.51-13.39v-4.15a46.66,46.66,0,0,1,1.57-13,24.58,24.58,0,0,1,4.28-8.67,16,16,0,0,1,6.35-4.85,20.28,20.28,0,0,1,7.79-1.5q5.53,0,8.56,1.69a18,18,0,0,1,5.53,5.1L600,98.81h16.47V153.9a49.94,49.94,0,0,1-1.38,12.32,21,21,0,0,1-4.78,9.12A21.47,21.47,0,0,1,601.1,181,46.35,46.35,0,0,1,586.51,183c-1,0-2.2,0-3.58-.13s-2.81-.21-4.28-.37-2.89-.36-4.27-.57-2.58-.44-3.59-.69v-15c1.68.34,3.79.69,6.35,1.07a47.83,47.83,0,0,0,7,.57,25,25,0,0,0,7.3-.88,10,10,0,0,0,4.21-2.39,7.35,7.35,0,0,0,1.88-3.71A24.21,24.21,0,0,0,598,156ZM583.87,129q0,7.17,1.63,10.06t5.66,2.89a5.81,5.81,0,0,0,3.46-.94,6.65,6.65,0,0,0,2.08-2.46,10.8,10.8,0,0,0,1-3.45,30.51,30.51,0,0,0,.26-4v-7.42c0-1.34-.07-2.67-.19-4a10.91,10.91,0,0,0-.88-3.46,6.2,6.2,0,0,0-2-2.45,5.79,5.79,0,0,0-3.45-.94,6,6,0,0,0-5.79,3.33q-1.75,3.33-1.76,9.62Z"/><path class="cls-1" d="M628,74h19v29.18a20.76,20.76,0,0,1,5.91-4.47,17.5,17.5,0,0,1,7.55-1.44,20.51,20.51,0,0,1,6.73,1.06,13.68,13.68,0,0,1,5.34,3.4,16.32,16.32,0,0,1,3.58,6,26.94,26.94,0,0,1,1.32,9v41.12h-19V123q0-4.39-1.14-6.41c-.75-1.34-2.13-2-4.15-2a5.08,5.08,0,0,0-5.09,3.09,9.88,9.88,0,0,0-.88,3.2,33.25,33.25,0,0,0-.19,3.65v33.45H628Z"/><path class="cls-1" d="M693.66,113.91h-8.18V98.81h8.43V83.09h18.48V98.81h13.08v15.1H712.65v20.62c0,3.27.45,5.6,1.38,7s2.85,2.08,5.78,2.08c1.26,0,2.33,0,3.21-.07a23.47,23.47,0,0,0,2.83-.31V157.8a31.37,31.37,0,0,1-5.28.81q-3.52.31-6.42.32a28.5,28.5,0,0,1-9.55-1.39,14.4,14.4,0,0,1-6.35-4.27,17.54,17.54,0,0,1-3.53-7.48,48.7,48.7,0,0,1-1.06-10.88Z"/><path class="cls-2" d="M733.65,110.51q0-10.56,2.64-17.79a29.16,29.16,0,0,1,7.29-11.57,27.16,27.16,0,0,1,11.07-6.23A49.69,49.69,0,0,1,768.73,73a75.15,75.15,0,0,1,15.72,1.64V91A38.76,38.76,0,0,0,778,89.7a59.56,59.56,0,0,0-6.41-.32,32.88,32.88,0,0,0-6.23.57,10.38,10.38,0,0,0-5.15,2.58,13.77,13.77,0,0,0-3.52,5.72,30.84,30.84,0,0,0-1.33,10.12v15.22a29.57,29.57,0,0,0,1.39,10.12,14.09,14.09,0,0,0,3.64,5.73,10.71,10.71,0,0,0,5.22,2.57,32.88,32.88,0,0,0,6.23.57,64.77,64.77,0,0,0,7.23-.38,45.27,45.27,0,0,0,5.85-1v16.09a66.53,66.53,0,0,1-8,1.26q-4,.38-8,.38A50.29,50.29,0,0,1,754.84,157a27.71,27.71,0,0,1-11.19-6.22,28.8,28.8,0,0,1-7.36-11.57q-2.64-7.23-2.64-17.8Z"/><path class="cls-2" d="M843.06,157.92h-17l-1.26-5.28a38.16,38.16,0,0,1-2.7,2.7,18.64,18.64,0,0,1-2.89,2.14,13.29,13.29,0,0,1-3.59,1.45,20.16,20.16,0,0,1-4.78.5,20.51,20.51,0,0,1-6.73-1.07,13.54,13.54,0,0,1-5.34-3.39,15.79,15.79,0,0,1-3.52-6,28.12,28.12,0,0,1-1.26-9V98.81h19v35q0,4.4,1.13,6.41a4.23,4.23,0,0,0,4,2,5.33,5.33,0,0,0,3.08-.82,5.13,5.13,0,0,0,1.82-2.26,11,11,0,0,0,.82-3.21,33.07,33.07,0,0,0,.19-3.64V98.81h19Z"/><path class="cls-2" d="M906.44,130.25a48.31,48.31,0,0,1-1.51,13,24.63,24.63,0,0,1-4.15,8.68,15.6,15.6,0,0,1-6.29,4.84,20.11,20.11,0,0,1-7.8,1.51,19.31,19.31,0,0,1-7.6-1.32,21.41,21.41,0,0,1-6-4l-1.13,4.9H854.63V74h18.48v28.8a19,19,0,0,1,6-4.21,20.16,20.16,0,0,1,7.8-1.32,21.35,21.35,0,0,1,7.73,1.38,14.78,14.78,0,0,1,6.23,4.65A23.14,23.14,0,0,1,905,112a52,52,0,0,1,1.45,13.39Zm-19.24-4.4c0-4.78-.51-8.13-1.51-10.06s-2.85-2.89-5.53-2.89a6.15,6.15,0,0,0-3.53.94,6.38,6.38,0,0,0-2.13,2.45,11.8,11.8,0,0,0-1.07,3.46,24.92,24.92,0,0,0-.32,4v8.17a32.38,32.38,0,0,0,.25,4,10.94,10.94,0,0,0,1,3.46,6.53,6.53,0,0,0,2.08,2.45,6.58,6.58,0,0,0,9.11-2.39q1.63-3.33,1.64-9.62Z"/><path class="cls-2" d="M933.48,134.4q.24,5.67,4.27,7.86t11.45,2.21a50.92,50.92,0,0,0,5.34-.32,36.29,36.29,0,0,0,5.35-.94v14.21a25.83,25.83,0,0,1-3.4.63c-1.34.16-2.7.31-4.09.44s-2.74.23-4.08.31-2.48.13-3.4.13q-14.08,0-21.63-6.79t-7.55-20.75v-8.68a29.45,29.45,0,0,1,2-11.19,21.27,21.27,0,0,1,13.4-12.64,31.15,31.15,0,0,1,10.06-1.57,27.34,27.34,0,0,1,8.68,1.38,19.75,19.75,0,0,1,7.35,4.4,21.09,21.09,0,0,1,5.1,7.86,32.66,32.66,0,0,1,1.88,11.76V134.4Zm14.21-11.82q0-6.4-1.83-8.55a6.34,6.34,0,0,0-5.09-2.14,7.13,7.13,0,0,0-5.34,2.14q-2.08,2.14-2.08,8.55Z"/></svg>